<?xml version="1.0" standalone="no"?>
<!DOCTYPE svg PUBLIC "-//W3C//DTD SVG 20010904//EN"
 "http://www.w3.org/TR/2001/REC-SVG-20010904/DTD/svg10.dtd">
<svg version="1.0" xmlns="http://www.w3.org/2000/svg"
 width="1024.000000pt" height="1024.000000pt" viewBox="0 0 1024.000000 1024.000000"
 preserveAspectRatio="xMidYMid meet">

<g transform="translate(0.000000,1024.000000) scale(0.100000,-0.100000)"
fill="#000000" stroke="none">
<path d="M4525 6651 c-48 -21 -100 -73 -124 -121 -10 -19 -40 -100 -66 -180
-91 -277 -196 -509 -277 -611 -84 -107 -180 -143 -213 -79 -19 37 -19 168 -1
265 8 39 13 71 12 72 -1 2 -34 -61 -72 -139 -78 -160 -79 -166 -56 -363 7 -60
14 -154 15 -208 l2 -98 36 -9 c45 -12 53 -31 34 -76 -16 -39 -36 -43 -73 -14
-30 24 -40 17 -44 -30 -2 -26 1 -35 12 -35 28 -1 40 -16 40 -49 0 -50 -58 -91
-74 -51 -9 25 -33 17 -45 -16 -13 -37 -7 -51 22 -47 30 4 46 -42 27 -77 -19
-36 -47 -42 -73 -14 l-21 22 -17 -39 c-18 -44 -16 -54 11 -54 25 0 35 -36 21
-73 -14 -36 -37 -44 -62 -21 -17 16 -22 16 -29 4 -6 -8 -10 -18 -10 -22 0 -12
-151 -402 -161 -418 -10 -15 -5 55 7 106 5 20 3 20 -68 12 -120 -14 -174 -34
-222 -82 -38 -38 -45 -51 -61 -127 -22 -109 -18 -218 10 -249 27 -30 59 -41
117 -42 110 0 217 109 455 467 108 162 303 480 303 494 0 5 7 14 15 21 9 7 14
19 11 27 -3 8 0 16 8 19 11 4 150 218 151 234 1 8 27 55 34 60 4 3 56 82 116
175 223 345 433 593 593 699 155 102 372 169 558 170 l111 1 -35 45 c-76 95
-80 98 -147 105 -34 4 -104 2 -156 -5 -92 -12 -242 -52 -266 -72 -7 -5 -18 -8
-24 -6 -15 5 84 71 155 104 29 13 86 33 127 44 l74 20 -65 -6 c-153 -15 -322
-81 -445 -174 -36 -27 -65 -45 -65 -40 0 15 79 102 134 148 100 84 293 161
404 162 17 0 32 4 32 9 0 14 -83 86 -134 116 -87 51 -162 65 -341 65 -133 0
-167 -3 -200 -19z"/>
<path d="M4148 6133 c-29 -48 -89 -113 -120 -129 -40 -20 -74 -11 -97 27 -24
40 -28 30 -42 -128 -12 -133 -5 -183 24 -183 39 0 151 164 212 310 30 70 49
130 42 130 -1 0 -10 -12 -19 -27z"/>
<path d="M4760 5478 c-12 -22 -12 -22 6 -6 10 10 15 20 12 24 -4 3 -12 -5 -18
-18z"/>
<path d="M6185 5450 c3 -5 8 -10 11 -10 2 0 4 5 4 10 0 6 -5 10 -11 10 -5 0
-7 -4 -4 -10z"/>
<path d="M6283 5413 c9 -2 23 -2 30 0 6 3 -1 5 -18 5 -16 0 -22 -2 -12 -5z"/>
<path d="M6348 5413 c7 -3 16 -2 19 1 4 3 -2 6 -13 5 -11 0 -14 -3 -6 -6z"/>
<path d="M6127 5345 c-4 -11 -10 -27 -13 -35 -3 -8 1 -5 11 8 9 12 15 28 13
34 -3 7 -7 4 -11 -7z"/>
<path d="M6145 5320 c-3 -11 -2 -27 3 -37 8 -13 10 -9 9 20 -1 42 -3 45 -12
17z"/>
<path d="M6288 5333 c6 -2 18 -2 25 0 6 3 1 5 -13 5 -14 0 -19 -2 -12 -5z"/>
<path d="M6241 5294 c0 -11 3 -14 6 -6 3 7 2 16 -1 19 -3 4 -6 -2 -5 -13z"/>
<path d="M6580 5288 c0 -4 20 -8 44 -8 40 0 45 -3 49 -25 4 -23 4 -23 3 2 -1
26 -5 28 -48 33 -27 3 -48 2 -48 -2z"/>
<path d="M6790 5290 c-9 -6 -10 -10 -3 -10 6 0 15 5 18 10 8 12 4 12 -15 0z"/>
<path d="M6120 5150 c0 -79 3 -141 6 -137 7 7 6 269 -1 276 -3 2 -5 -60 -5
-139z"/>
<path d="M6272 5264 c10 -10 20 -15 24 -12 3 4 -5 12 -18 18 -22 12 -22 12 -6
-6z"/>
<path d="M7060 5260 c-9 -6 -10 -10 -3 -10 6 0 15 5 18 10 8 12 4 12 -15 0z"/>
<path d="M6166 5225 c4 -8 11 -15 16 -15 6 0 5 6 -2 15 -7 8 -14 15 -16 15 -2
0 -1 -7 2 -15z"/>
<path d="M7024 5215 c-9 -14 -15 -27 -13 -30 3 -2 12 10 21 26 21 36 15 39 -8
4z"/>
<path d="M6686 5205 c-9 -26 -7 -32 5 -12 6 10 9 21 6 23 -2 3 -7 -2 -11 -11z"/>
<path d="M6796 5201 c-4 -5 3 -7 14 -4 23 6 26 13 6 13 -8 0 -17 -4 -20 -9z"/>
<path d="M7148 5203 c7 -3 16 -2 19 1 4 3 -2 6 -13 5 -11 0 -14 -3 -6 -6z"/>
<path d="M7103 5165 c-3 -9 -3 -18 -1 -21 3 -3 8 4 11 16 6 23 -1 27 -10 5z"/>
<path d="M7000 5140 c0 -17 -7 -46 -14 -65 -8 -19 -13 -35 -10 -35 3 0 11 15
19 33 8 17 14 26 15 19 0 -13 40 -71 40 -59 0 4 -9 21 -19 38 -11 18 -17 42
-15 59 3 16 0 31 -6 35 -6 4 -10 -6 -10 -25z"/>
<path d="M6432 5105 c0 -16 2 -22 5 -12 2 9 2 23 0 30 -3 6 -5 -1 -5 -18z"/>
<path d="M6770 5121 c0 -5 9 -19 20 -32 l21 -24 -16 33 c-15 31 -25 41 -25 23z"/>
<path d="M6580 5103 c0 -12 5 -25 11 -28 16 -11 17 -2 2 25 -12 24 -13 24 -13
3z"/>
<path d="M6032 5085 c0 -16 2 -22 5 -12 2 9 2 23 0 30 -3 6 -5 -1 -5 -18z"/>
<path d="M6210 5106 c0 -2 8 -10 18 -17 15 -13 16 -12 3 4 -13 16 -21 21 -21
13z"/>
<path d="M6492 5090 c0 -14 2 -19 5 -12 2 6 2 18 0 25 -3 6 -5 1 -5 -13z"/>
<path d="M6681 5100 c0 -8 4 -22 9 -30 12 -18 12 -2 0 25 -6 13 -9 15 -9 5z"/>
<path d="M4180 5089 c0 -5 5 -7 10 -4 6 3 10 8 10 11 0 2 -4 4 -10 4 -5 0 -10
-5 -10 -11z"/>
<path d="M4182 5048 c2 -6 15 -18 29 -26 l24 -14 -22 20 c-12 11 -19 22 -16
26 4 3 1 6 -6 6 -7 0 -11 -5 -9 -12z"/>
<path d="M6415 5050 c-3 -5 -1 -10 4 -10 6 0 11 5 11 10 0 6 -2 10 -4 10 -3 0
-8 -4 -11 -10z"/>
<path d="M6662 5040 c0 -14 2 -19 5 -12 2 6 2 18 0 25 -3 6 -5 1 -5 -13z"/>
<path d="M6027 5029 c4 -13 8 -18 11 -10 2 7 -1 18 -6 23 -8 8 -9 4 -5 -13z"/>
<path d="M6940 5015 c-7 -9 -8 -15 -2 -15 5 0 12 7 16 15 3 8 4 15 2 15 -2 0
-9 -7 -16 -15z"/>
<path d="M7080 5006 c0 -2 7 -7 16 -10 8 -3 12 -2 9 4 -6 10 -25 14 -25 6z"/>
<path d="M4128 4993 c6 -2 18 -2 25 0 6 3 1 5 -13 5 -14 0 -19 -2 -12 -5z"/>
<path d="M4180 4990 c19 -13 30 -13 30 0 0 6 -10 10 -22 10 -19 0 -20 -2 -8
-10z"/>
<path d="M6063 4993 c9 -2 25 -2 35 0 9 3 1 5 -18 5 -19 0 -27 -2 -17 -5z"/>
<path d="M6555 4990 c3 -5 8 -10 11 -10 2 0 4 5 4 10 0 6 -5 10 -11 10 -5 0
-7 -4 -4 -10z"/>
<path d="M6357 4931 c-4 -17 -3 -21 5 -13 5 5 8 16 6 23 -3 8 -7 3 -11 -10z"/>
<path d="M6385 4930 c-3 -4 7 -10 20 -13 14 -2 28 -1 30 3 3 4 -7 10 -20 13
-14 2 -28 1 -30 -3z"/>
<path d="M4147 4903 c-4 -3 -7 -11 -7 -17 0 -6 5 -5 12 2 6 6 9 14 7 17 -3 3
-9 2 -12 -2z"/>
<path d="M4171 4894 c0 -11 3 -14 6 -6 3 7 2 16 -1 19 -3 4 -6 -2 -5 -13z"/>
<path d="M6525 4900 c-3 -5 -1 -10 4 -10 6 0 11 5 11 10 0 6 -2 10 -4 10 -3 0
-8 -4 -11 -10z"/>
<path d="M6630 4900 c-13 -8 -12 -10 3 -10 9 0 17 5 17 10 0 12 -1 12 -20 0z"/>
<path d="M6361 4887 c-6 -6 -11 -15 -11 -21 0 -5 6 -2 13 9 8 10 19 15 25 11
6 -3 13 -3 16 2 7 12 -30 12 -43 -1z"/>
<path d="M6477 4880 c-9 -11 -13 -20 -9 -20 4 0 15 9 25 20 9 11 13 20 9 20
-4 0 -15 -9 -25 -20z"/>
<path d="M6900 4867 c0 -20 4 -37 8 -37 9 0 7 58 -2 67 -3 4 -6 -10 -6 -30z"/>
<path d="M6940 4896 c0 -2 7 -7 16 -10 8 -3 12 -2 9 4 -6 10 -25 14 -25 6z"/>
<path d="M7020 4890 c-9 -6 -10 -10 -3 -10 6 0 15 5 18 10 8 12 4 12 -15 0z"/>
<path d="M4050 4875 c0 -4 5 -15 10 -26 9 -16 7 -19 -13 -19 -14 0 -31 -7 -38
-17 -13 -15 -12 -15 8 -5 29 16 36 15 29 -3 -3 -8 -1 -15 4 -15 6 0 10 7 10
15 0 8 7 15 15 15 8 0 15 -4 15 -10 0 -5 7 -10 17 -10 12 0 10 6 -10 23 -15
12 -27 28 -27 34 0 7 -4 15 -10 18 -5 3 -10 3 -10 0z"/>
<path d="M6734 4868 c-5 -8 -2 -9 9 -5 10 3 17 2 17 -3 0 -6 -5 -10 -11 -10
-5 0 -7 -5 -3 -11 5 -8 10 -6 16 5 15 27 -12 51 -28 24z"/>
<path d="M4095 4860 c3 -5 11 -10 16 -10 6 0 7 5 4 10 -3 6 -11 10 -16 10 -6
0 -7 -4 -4 -10z"/>
<path d="M6105 4860 c3 -5 8 -10 11 -10 2 0 4 5 4 10 0 6 -5 10 -11 10 -5 0
-7 -4 -4 -10z"/>
<path d="M6505 4859 c-11 -16 -1 -19 13 -3 7 8 8 14 3 14 -5 0 -13 -5 -16 -11z"/>
<path d="M6625 4859 c-4 -6 -4 -13 -1 -16 3 -4 6 -1 6 6 0 7 5 9 12 5 7 -4 8
-3 4 4 -9 15 -13 15 -21 1z"/>
<path d="M6674 4858 c-5 -8 -2 -9 9 -5 10 4 21 -1 27 -11 11 -16 11 -15 6 1
-3 10 -6 21 -6 23 0 9 -29 3 -36 -8z"/>
<path d="M6975 4860 c-3 -5 0 -10 8 -10 10 0 13 -7 10 -20 -3 -11 -3 -20 0
-20 2 0 7 9 10 20 6 22 -17 48 -28 30z"/>
<path d="M7037 4863 c-4 -3 -7 -11 -7 -17 0 -6 5 -5 12 2 6 6 9 14 7 17 -3 3
-9 2 -12 -2z"/>
<path d="M6867 4840 c-3 -11 -1 -23 4 -26 5 -3 9 6 9 20 0 31 -6 34 -13 6z"/>
<path d="M6127 4843 c-4 -3 -7 -11 -7 -17 0 -6 5 -5 12 2 6 6 9 14 7 17 -3 3
-9 2 -12 -2z"/>
<path d="M6460 4825 c0 -14 4 -25 9 -25 4 0 6 11 3 25 -2 14 -6 25 -8 25 -2 0
-4 -11 -4 -25z"/>
<path d="M6360 4825 c7 -8 17 -15 22 -15 5 0 3 7 -6 15 -8 8 -18 15 -22 15 -3
0 -1 -7 6 -15z"/>
<path d="M6630 4830 c-13 -8 -12 -10 3 -10 9 0 17 5 17 10 0 12 -1 12 -20 0z"/>
<path d="M6080 4821 c0 -5 7 -12 16 -15 14 -5 15 -4 4 9 -14 17 -20 19 -20 6z"/>
<path d="M6400 4819 c0 -5 5 -7 10 -4 6 3 10 8 10 11 0 2 -4 4 -10 4 -5 0 -10
-5 -10 -11z"/>
<path d="M7036 4807 c3 -10 9 -15 12 -12 3 3 0 11 -7 18 -10 9 -11 8 -5 -6z"/>
<path d="M6070 4780 c0 -5 5 -10 10 -10 6 0 10 5 10 10 0 6 -4 10 -10 10 -5 0
-10 -4 -10 -10z"/>
<path d="M4245 4769 c-4 -6 -5 -12 -2 -15 2 -3 7 2 10 11 7 17 1 20 -8 4z"/>
<path d="M4995 3990 c-17 -18 -17 -22 -4 -36 18 -18 46 -9 54 17 13 40 -20 52
-50 19z"/>
<path d="M5250 3996 c0 -2 7 -7 16 -10 8 -3 12 -2 9 4 -6 10 -25 14 -25 6z"/>
<path d="M5125 3979 c-10 -15 3 -25 16 -12 7 7 7 13 1 17 -6 3 -14 1 -17 -5z"/>
<path d="M4635 3970 c-3 -6 1 -7 9 -4 18 7 21 14 7 14 -6 0 -13 -4 -16 -10z"/>
<path d="M4843 3938 c-42 -9 -43 -9 -27 -33 13 -20 21 -23 47 -18 38 7 43 11
52 41 7 25 -1 26 -72 10z"/>
<path d="M4949 3859 c-8 -17 -8 -24 3 -36 13 -12 18 -11 38 5 21 17 22 22 11
36 -18 22 -38 20 -52 -5z"/>
<path d="M4580 3830 c-113 -9 -281 -49 -404 -96 -101 -39 -284 -128 -306 -150
-12 -12 108 -14 920 -13 1043 2 1008 -4 425 64 -542 62 -595 69 -595 74 0 4
30 23 68 44 37 21 78 47 92 57 l25 20 -52 0 c-28 0 -57 2 -65 3 -7 2 -56 1
-108 -3z"/>
</g>
</svg>
